<svg id="Camada_1" data-name="Camada 1" xmlns="http://www.w3.org/2000/svg" xmlns:xlink="http://www.w3.org/1999/xlink" viewBox="0 0 907.09 907.09"><defs><style>.cls-1{fill:#fff;stroke-miterlimit:10;stroke-width:20px;stroke:url(#Gradiente_sem_nome_49);}.cls-2{fill:url(#Gradiente_sem_nome_49-2);}.cls-3{fill:#f7fcf7;}</style><linearGradient id="Gradiente_sem_nome_49" x1="14.41" y1="453.57" x2="891.76" y2="453.57" gradientUnits="userSpaceOnUse"><stop offset="0" stop-color="#39b54a"/><stop offset="0.27" stop-color="#36cf3d"/><stop offset="0.5" stop-color="#33e133"/><stop offset="0.76" stop-color="#36c740"/><stop offset="1" stop-color="#39b54a"/></linearGradient><linearGradient id="Gradiente_sem_nome_49-2" x1="73.4" y1="453.57" x2="832.77" y2="453.57" xlink:href="#Gradiente_sem_nome_49"/></defs><title>Prancheta 1</title><rect class="cls-1" x="24.41" y="24.9" width="857.35" height="857.35" rx="428.67"/><rect class="cls-2" x="73.4" y="73.89" width="759.36" height="759.36" rx="379.68"/><rect class="cls-3" x="315.96" y="340.56" width="108.68" height="552.07" rx="48.34" transform="translate(-345.84 683.37) rotate(-64.34)"/><rect class="cls-3" x="369.46" y="229.54" width="108.68" height="552.07" rx="48.34" transform="translate(-215.43 668.64) rotate(-64.34)"/><path class="cls-3" d="M714.24,449.94,303.76,252.74a48.47,48.47,0,0,0-64.5,22.64l-5.2,10.81A48.5,48.5,0,0,0,256.7,350.7L667.18,547.89a48.47,48.47,0,0,0,64.51-22.64l5.19-10.81A48.47,48.47,0,0,0,714.24,449.94Z"/><rect class="cls-3" x="481.53" y="14.52" width="108.68" height="552.07" rx="48.34" transform="translate(41.92 647.76) rotate(-64.34)"/></svg>